<svg xmlns="http://www.w3.org/2000/svg" xmlns:xlink="http://www.w3.org/1999/xlink" xmlns:lucid="lucid" width="1534.58" height="782"><g transform="translate(-14 -11.50733848944094)" lucid:page-tab-id="0_0"><path d="M0 0h1539.72v798.35H0z" fill="#fff"/><path d="M220.5 88c0-4.42 3.58-8 8-8h144c4.42 0 8 3.58 8 8v44c0 4.42-3.58 8-8 8h-144c-4.42 0-8-3.58-8-8z" stroke="#333" fill="#fc9432"/><use xlink:href="#a" transform="matrix(1,0,0,1,232.5,92) translate(19.027469135802477 22.488888888888887)"/><path d="M294.1 285.3c3.53-2.65 9.27-2.65 12.8 0l67.2 50.4c3.53 2.65 3.53 6.95 0 9.6l-67.2 50.4c-3.53 2.65-9.27 2.65-12.8 0l-67.2-50.4c-3.53-2.65-3.53-6.95 0-9.6z" stroke="#333" fill="#fc9432"/><use xlink:href="#b" transform="matrix(1,0,0,1,225.5,285.5) translate(14.057098765432109 59.48888888888888)"/><use xlink:href="#c" transform="matrix(1,0,0,1,225.5,285.5) translate(73.84660493827161 59.48888888888888)"/><path d="M300.5 141v125.53" stroke="#333" fill="none"/><path d="M301 141h-1v-.5h1" fill="#333"/><path d="M300.5 281.3l-4.64-14.27h9.28z" stroke="#333" fill="#333"/><path d="M60.5 488.5c0-4.4 3.58-8 8-8h144c4.42 0 8 3.6 8 8V532c0 4.42-3.58 8-8 8h-144c-4.42 0-8-3.58-8-8z" stroke="#333" fill="#fc9432"/><use xlink:href="#d" transform="matrix(1,0,0,1,72.5,492.5137010219859) translate(6.340123456790124 22.488888888888887)"/><path d="M409 341.5h-30.86v-2H409m52 2h-13.35v-2H461" fill="#7ab648"/><path d="M378.17 341.5h-1.07l.08-1.95 1-.05M476.26 340.5L462 345.14v-9.28z" fill="#7ab648"/><path d="M479.5 340.5l-18.5 6v-12m2 9.26l10.03-3.26-10.03-3.26" fill="#7ab648"/><use xlink:href="#e" transform="matrix(1,0,0,1,408.99329020881044,327.03333333333336) translate(0.004999999999999005 17.955555555555552)"/><path d="M192.14 434.27h-39.57l-2.92.4-2.64 1.08-2.27 1.75-1.76 2.3-1.1 2.62-.37 2.92v16.17h-2v-16.3l.43-3.3 1.3-3.12 2.07-2.7L146 434l3.13-1.3 3.3-.43h39.7m60.05-10.93l-.44 3.3-1.3 3.13-2.07 2.7-2.7 2.08-3.12 1.3-3.3.42h-17.3v-2h17.16l2.93-.38 2.63-1.1 2.3-1.76 1.74-2.28 1.1-2.63.38-2.92v-56.07h2" fill="#c92d39"/><path d="M252.18 364.88v.28h-2v-1.78M140.5 476.78l-4.64-14.27h9.28z" fill="#c92d39"/><path d="M140.5 480l-6-18.5h12m-9.26 2l3.26 10.04 3.26-10.03" fill="#c92d39"/><use xlink:href="#f" transform="matrix(1,0,0,1,192.1372631270132,419.8060941525492) translate(0.005000000000000782 17.955555555555552)"/><path d="M60.5 597.96c0-4.42 3.57-8.22 7.98-8.5l144.04-8.96c4.4-.28 7.98 3.08 7.98 7.5v44c0 4.42-3.58 8-8 8h-144c-4.42 0-8-3.58-8-8z" stroke="#333" fill="#fc9432"/><use xlink:href="#g" transform="matrix(1,0,0,1,65.5,595) translate(17.797839506172856 24.488888888888887)"/><path d="M140.5 541v27.1" stroke="#333" fill="none"/><path d="M141 541h-1v-.5h1" fill="#333"/><path d="M140.5 582.86l-4.64-14.26h9.28z" stroke="#333" fill="#333"/><path d="M60.5 697.96c0-4.42 3.57-8.22 7.98-8.5l144.04-8.96c4.4-.28 7.98 3.08 7.98 7.5v44c0 4.42-3.58 8-8 8h-144c-4.42 0-8-3.58-8-8z" stroke="#333" fill="#fc9432"/><use xlink:href="#h" transform="matrix(1,0,0,1,65.5,695) translate(12.779012345679028 24.488888888888887)"/><path d="M140.5 641v27.1" stroke="#333" fill="none"/><path d="M141 641h-1v-.5h1" fill="#333"/><path d="M140.5 682.86l-4.64-14.26h9.28z" stroke="#333" fill="#333"/><path d="M480 308.5c0-4.42 3.58-8 8-8h144c4.42 0 8 3.58 8 8v64c0 4.42-3.58 8-8 8H488c-4.42 0-8-3.58-8-8z" stroke="#333" fill="#fc9432"/><use xlink:href="#i" transform="matrix(1,0,0,1,492,312.5) translate(8.210493827160512 32.48888888888889)"/><path d="M753.6 285.3c3.53-2.65 9.27-2.65 12.8 0l67.2 50.4c3.53 2.65 3.53 6.95 0 9.6l-67.2 50.4c-3.53 2.65-9.27 2.65-12.8 0l-67.2-50.4c-3.53-2.65-3.53-6.95 0-9.6z" stroke="#333" fill="#fc9432"/><use xlink:href="#j" transform="matrix(1,0,0,1,685,285.5) translate(17.20555555555557 59.48888888888888)"/><use xlink:href="#k" transform="matrix(1,0,0,1,685,285.5) translate(70.7604938271605 59.48888888888888)"/><path d="M641 340.5h25.98" stroke="#333" fill="none"/><path d="M641 341h-.5v-1h.5" fill="#333"/><path d="M681.74 340.5l-14.26 4.64v-9.28z" stroke="#333" fill="#333"/><path d="M851.98 341.5h-14.34v-2h14.34" fill="#7ab648"/><path d="M837.67 341.5h-1.07l.08-1.95 1-.05M902.73 338l-12.1 3.94v-7.86z" fill="#7ab648"/><path d="M905.97 338l-15.34 5v-2.1l8.86-2.9-8.87-2.87v-2.1" fill="#7ab648"/><use xlink:href="#e" transform="matrix(1,0,0,1,851.9768193149706,325.78700257805383) translate(0.004999999999999005 17.955555555555552)"/><path d="M761 498.32l-.43 3.3-1.3 3.13-2.07 2.7-2.7 2.08-3.13 1.3-3.3.43H721.6v-2h26.33l2.92-.4 2.64-1.08 2.27-1.75 1.76-2.3 1.1-2.62.37-2.9v-2.12h2m0-26.93h-2V399.1h2M761 398.1v1h-2v-1.02M720.6 514.9l-14.26-4.64 14.27-4.64z" fill="#c92d39"/><path d="M721.6 516.27l-18.5-6 18.5-6.02m-12.02 6l10.03 3.27V507" fill="#c92d39"/><use xlink:href="#f" transform="matrix(1,0,0,1,745.0993827160494,469.1509282690392) translate(0.005000000000000782 17.955555555555552)"/><path d="M542.6 478.18c0-4.42 3.56-8.45 7.95-9l144.12-17.93c4.38-.55 7.94 2.6 7.94 7v104c0 4.43-3.57 8-8 8h-144c-4.4 0-8-3.57-8-8z" stroke="#333" fill="#fc9432"/><use xlink:href="#j" transform="matrix(1,0,0,1,547.6079596175955,475.256850510993) translate(30.859259259259268 36.022222222222226)"/><use xlink:href="#l" transform="matrix(1,0,0,1,547.6079596175955,475.256850510993) translate(84.41419753086419 36.022222222222226)"/><use xlink:href="#m" transform="matrix(1,0,0,1,547.6079596175955,475.256850510993) translate(43.98302469135803 62.95555555555555)"/><path d="M333.76 455.06c3.53-2.65 9.27-2.65 12.8 0l67.2 50.4c3.53 2.65 3.53 6.95 0 9.6l-67.2 50.4c-3.53 2.65-9.27 2.65-12.8 0l-67.2-50.4c-3.53-2.65-3.53-6.95 0-9.6z" stroke="#333" fill="#fc9432"/><use xlink:href="#n" transform="matrix(1,0,0,1,265.15999999999997,455.256850510993) translate(50.092901234567904 32.55555555555556)"/><use xlink:href="#o" transform="matrix(1,0,0,1,265.15999999999997,455.256850510993) translate(63.808950617283955 59.488888888888894)"/><use xlink:href="#p" transform="matrix(1,0,0,1,265.15999999999997,455.256850510993) translate(41.98796296296297 86.42222222222222)"/><path d="M541.6 510.5H433.18" stroke="#333" fill="none"/><path d="M542.1 511h-.5v-1h.5" fill="#333"/><path d="M418.4 510.5l14.27-4.64v9.27z" stroke="#333" fill="#333"/><path d="M340.16 452.17v-64.4" stroke="#333" fill="none"/><path d="M340.66 452.68h-1v-.52h1" fill="#333"/><path d="M340.16 373l4.64 14.26h-9.28z" stroke="#333" fill="#333"/><path d="M263.02 510.26h-25.64" stroke="#333" fill="none"/><path d="M263.5 510.76h-.5v-1h.54" fill="#333"/><path d="M222.62 510.26l14.26-4.64v9.27z" stroke="#333" fill="#333"/><path d="M906.47 306c0-4.4 3.58-8 8-8h144c4.42 0 8 3.6 8 8v64c0 4.43-3.58 8-8 8h-144c-4.42 0-8-3.57-8-8z" stroke="#333" fill="#fc9432"/><use xlink:href="#q" transform="matrix(1,0,0,1,918.4670582123204,310.00733848944094) translate(1.9759259259259352 19.022222222222222)"/><use xlink:href="#r" transform="matrix(1,0,0,1,918.4670582123204,310.00733848944094) translate(86.70370370370371 19.022222222222222)"/><use xlink:href="#s" transform="matrix(1,0,0,1,918.4670582123204,310.00733848944094) translate(2.038271604938288 45.95555555555555)"/><path d="M1200.07 282.8c3.53-2.64 9.26-2.64 12.8 0l67.2 50.4c3.53 2.66 3.53 6.96 0 9.6l-67.2 50.4c-3.54 2.66-9.27 2.66-12.8 0l-67.2-50.4c-3.54-2.64-3.54-6.94 0-9.6z" stroke="#333" fill="#fc9432"/><use xlink:href="#t" transform="matrix(1,0,0,1,1131.4670582123204,283.00733848944094) translate(17.236728395061746 59.48888888888888)"/><use xlink:href="#u" transform="matrix(1,0,0,1,1131.4670582123204,283.00733848944094) translate(78.14845679012346 59.48888888888888)"/><use xlink:href="#v" transform="matrix(1,0,0,1,1131.4670582123204,283.00733848944094) translate(105.45586419753086 59.48888888888888)"/><path d="M1067.47 338h45.97" stroke="#333" fill="none"/><path d="M1067.48 338.5h-.5v-1h.5" fill="#333"/><path d="M1128.2 338l-14.26 4.64v-9.27z" stroke="#333" fill="#333"/><path d="M1206.97 279.92h-1v-27h1m0-26.92h-1v-11.1h1" fill="#333"/><path d="M1206.97 280.43h-1v-.52h1M1211.1 214.4h-9.27l4.64-14.27z" fill="#333"/><path d="M1211.8 214.9h-10.66l5.33-16.4m-3.95 15.4h7.9l-3.95-12.16" fill="#333"/><use xlink:href="#w" transform="matrix(1,0,0,1,1174.7019347555301,225.9975223337672) translate(0.004999999999999005 17.955555555555552)"/><path d="M1206.97 481.12h-1v-21.1h1m0-26.94h-1v-37h1" fill="#333"/><path d="M1206.97 395.6v.5h-1v-.5M1206.47 495.9l-4.64-14.28h9.27z" fill="#333"/><path d="M1206.47 497.5l-5.33-16.38h10.65m-9.28 1l3.95 12.15 3.94-12.15" fill="#333"/><use xlink:href="#x" transform="matrix(1,0,0,1,1154.782490311086,433.0838213117814) translate(0.005000000000002558 17.955555555555552)"/><use xlink:href="#y" transform="matrix(1,0,0,1,1154.782490311086,433.0838213117814) translate(72.26364197530864 17.955555555555552)"/><path d="M1126.47 125.5c0-4.4 3.58-8 8-8h144c4.42 0 8 3.6 8 8V190c0 4.43-3.58 8-8 8h-144c-4.42 0-8-3.57-8-8z" stroke="#333" fill="#fc9432"/><use xlink:href="#z" transform="matrix(1,0,0,1,1138.4670582123204,129.50733848944094) translate(36.234876543209886 19.522222222222222)"/><use xlink:href="#A" transform="matrix(1,0,0,1,1138.4670582123204,129.50733848944094) translate(-3.6040123456789956 46.45555555555555)"/><path d="M1126.47 506c0-4.4 3.58-8 8-8h144c4.42 0 8 3.6 8 8v44c0 4.43-3.58 8-8 8h-144c-4.42 0-8-3.57-8-8z" stroke="#333" fill="#fc9432"/><use xlink:href="#B" transform="matrix(1,0,0,1,1138.4670582123204,510.00733848944094) translate(3.9086419753086687 22.488888888888887)"/><path d="M1126.47 608.38c0-4.42 3.57-8.22 7.98-8.5l144.03-8.96c4.4-.28 8 3.08 8 7.5v44c0 4.42-3.6 8-8 8h-144c-4.43 0-8-3.58-8-8z" stroke="#333" fill="#fc9432"/><use xlink:href="#C" transform="matrix(1,0,0,1,1131.4670582123204,605.4210395114268) translate(22.06851851851853 24.488888888888887)"/><path d="M1206.47 559v19.52" stroke="#333" fill="none"/><path d="M1206.97 559.02h-1v-.5h1" fill="#333"/><path d="M1206.47 593.28l-4.64-14.26h9.27z" stroke="#333" fill="#333"/><path d="M1197.7 76.93l3 1.24 2.6 2 2 2.6 1.25 3 .42 3.2v27.54h-1V89.05l-.4-3.02-1.14-2.75-1.83-2.4-2.4-1.83-2.75-1.14-3.02-.4h-95.93l-3.02.4-2.75 1.14-2.4 1.84-1.83 2.4-1.14 2.74-.4 3.02v175.82l.4 3.02 1.14 2.75 1.84 2.4 2.4 1.83 2.74 1.14 3.02.4h43.32l3.2.42 3 1.24 2.6 2 2 2.6 1.24 3 .42 3.2v11.65h-1v-11.57l-.4-3.02-1.13-2.74-1.84-2.4-2.38-1.83-2.75-1.14-3.02-.4h-43.32l-3.2-.43-3-1.24-2.6-2-2-2.6-1.24-3-.43-3.2V88.97l.42-3.2 1.23-3 2-2.6 2.6-2 3-1.24 3.2-.42h96.07" fill="#333"/><path d="M1206.97 117h-1v-.5h1M1153.78 315.28l-4.63-14.27h9.27z" fill="#333"/><path d="M1153.78 316.9l-5.32-16.4h10.65m-9.26 1l3.94 12.16 3.95-12.15" fill="#333"/><path d="M1126.47 708.38c0-4.42 3.57-8.22 7.98-8.5l144.03-8.96c4.4-.28 8 3.08 8 7.5v44c0 4.42-3.6 8-8 8h-144c-4.43 0-8-3.58-8-8z" stroke="#333" fill="#fc9432"/><use xlink:href="#D" transform="matrix(1,0,0,1,1131.4670582123204,705.4210395114268) translate(22.723148148148162 24.488888888888887)"/><path d="M1206.47 651.42v27.1" stroke="#333" fill="none"/><path d="M1206.97 651.43h-1v-.5h1" fill="#333"/><path d="M1206.47 693.28l-4.64-14.26h9.27z" stroke="#333" fill="#333"/><path d="M1157 389.2l-.42 3.2-1.24 3-2 2.6-2.6 2-3 1.24-3.2.42H1098l-3.02.4-2.75 1.14-2.4 1.83-1.83 2.4-1.14 2.75-.4 3v295.33l.4 3.02 1.14 2.76 1.84 2.4 2.4 1.82 2.74 1.14 3.02.4h27.47v1h-27.54l-3.2-.42-3-1.24-2.6-2-2-2.6-1.24-3-.43-3.2V413.12l.42-3.22 1.23-2.98 2-2.6 2.6-2 3-1.24 3.2-.42h46.54l3.02-.4 2.74-1.14 2.4-1.83 1.83-2.4 1.14-2.76.4-3v-11.6h1" fill="#333"/><path d="M1125.97 721.04h-.52v-1h.52M1161.14 377.04h-9.27l4.63-14.26z" fill="#333"/><path d="M1161.83 377.54h-10.65l5.32-16.38m-3.94 15.38h7.9l-3.96-12.14M207.48 341H32.03l-3 .4-2.77 1.14-2.4 1.83-1.82 2.4-1.14 2.75-.4 3V698.1l.4 3 1.14 2.76 1.83 2.4 2.4 1.82 2.75 1.14 3 .4H59.5v1H31.97l-3.2-.42-3-1.24-2.6-2-2-2.6-1.25-3-.42-3.2v-345.7l.42-3.2 1.24-3 2-2.6 2.6-2 3-1.24 3.2-.42H207.5" fill="#333"/><path d="M60 710.62h-.5v-1h.5M222.24 340.5l-14.26 4.64v-9.28z" fill="#333"/><path d="M223.86 340.5l-16.38 5.32v-10.64m1 9.27l12.14-3.95-12.14-3.95" fill="#333"/><path d="M1368.58 193.86c0-4.42 3.58-8 8-8h144c4.4 0 8 3.58 8 8v88.8c0 4.42-3.6 8-8 8h-144c-4.42 0-8-3.58-8-8z" stroke="#333" fill="#fc9432"/><use xlink:href="#E" transform="matrix(1,0,0,1,1380.5750178299159,197.85733848944096) translate(26.976543209876553 18.05555555555556)"/><use xlink:href="#F" transform="matrix(1,0,0,1,1380.5750178299159,197.85733848944096) translate(31.247222222222227 44.988888888888894)"/><use xlink:href="#G" transform="matrix(1,0,0,1,1380.5750178299159,197.85733848944096) translate(15.723148148148162 71.92222222222222)"/><path d="M1368.58 373.86c0-4.42 3.58-8 8-8h144c4.4 0 8 3.58 8 8v88.8c0 4.42-3.6 8-8 8h-144c-4.42 0-8-3.58-8-8z" stroke="#333" fill="#fc9432"/><use xlink:href="#H" transform="matrix(1,0,0,1,1380.5750178299159,377.857338489441) translate(31.309567901234573 18.05555555555556)"/><use xlink:href="#I" transform="matrix(1,0,0,1,1380.5750178299159,377.857338489441) translate(35.64259259259259 44.988888888888894)"/><use xlink:href="#G" transform="matrix(1,0,0,1,1380.5750178299159,377.857338489441) translate(15.723148148148162 71.92222222222222)"/><path d="M1448.58 184.86V29.5c0-6.62-5.38-12-12-12h-336c-6.63 0-12 5.38-12 12v31.62" stroke="#333" fill="none"/><path d="M1449.08 185.36h-1v-.52h1" fill="#333"/><path d="M1088.58 75.9l-4.64-14.28h9.27z" stroke="#333" fill="#333"/><path d="M1245 305.78c0-4.04 3.27-7.3 7.3-7.3h113.18" stroke="#333" fill="none"/><path d="M1245.5 306.65l-1-.75v-.13h1" fill="#333"/><path d="M1372.85 291.75l-7.42 13.03-6.24-6.85z" stroke="#333" fill="#333"/><path d="M1254.22 363.32v2.2c0 6.6 5.38 12 12 12h85.47" stroke="#333" fill="none"/><path d="M1254.72 363.33h-1v-.14l1-.76" fill="#333"/><path d="M1366.46 377.5l-14.27 4.64v-9.27z" stroke="#333" fill="#333"/><path d="M1448.58 471.66v69.46" stroke="#333" fill="none"/><path d="M1449.08 471.67h-1v-.5h1" fill="#333"/><path d="M1448.58 555.9l-4.64-14.28h9.27z" stroke="#333" fill="#333"/><path d="M1448.58 711.42v64.1c0 6.6-5.38 12-12 12h-336c-6.63 0-12-5.4-12-12v-41.63" stroke="#333" fill="none"/><path d="M1449.08 711.43h-1v-.5h1" fill="#333"/><path d="M1088.58 719.13l4.63 14.26h-9.26z" stroke="#333" fill="#333"/><path d="M1448.58 619v21.04" stroke="#333" fill="none"/><path d="M1449.08 619.02h-1v-.5h1" fill="#333"/><path d="M1448.58 654.8l-4.64-14.26h9.27z" stroke="#333" fill="#333"/><path d="M1368.58 566c0-4.4 3.58-8 8-8h144c4.4 0 8 3.6 8 8v44c0 4.43-3.6 8-8 8h-144c-4.42 0-8-3.57-8-8z" stroke="#333" fill="#fc9432"/><g><use xlink:href="#B" transform="matrix(1,0,0,1,1380.5750178299159,570.0073384894409) translate(3.9086419753086687 22.488888888888887)"/></g><path d="M1368.58 668.38c0-4.42 3.57-8.22 7.98-8.5l144.03-8.96c4.4-.28 7.98 3.08 7.98 7.5v44c0 4.42-3.6 8-8 8h-144c-4.42 0-8-3.58-8-8z" stroke="#333" fill="#fc9432"/><g><use xlink:href="#D" transform="matrix(1,0,0,1,1373.5750178299159,665.4210395114268) translate(22.723148148148162 24.488888888888887)"/></g><defs><path fill="#333" d="M275 0h-61l-44-196L126 0H64L0-248h53L97-49l45-199h58l43 199 44-199h52" id="J"/><path fill="#333" d="M185-48c-13 30-37 53-82 52C43 2 14-33 14-96s30-98 90-98c62 0 83 45 84 108H66c0 31 8 55 39 56 18 0 30-7 34-22zm-45-69c5-46-57-63-70-21-2 6-4 13-4 21h74" id="K"/><path fill="#333" d="M25 0v-261h50V0H25" id="L"/><path fill="#333" d="M190-63c-7 42-38 67-86 67-59 0-84-38-90-98-12-110 154-137 174-36l-49 2c-2-19-15-32-35-32-30 0-35 28-38 64-6 74 65 87 74 30" id="M"/><path fill="#333" d="M110-194c64 0 96 36 96 99 0 64-35 99-97 99-61 0-95-36-95-99 0-62 34-99 96-99zm-1 164c35 0 45-28 45-65 0-40-10-65-43-65-34 0-45 26-45 65 0 36 10 65 43 65" id="N"/><path fill="#333" d="M220-157c-53 9-28 100-34 157h-49v-107c1-27-5-49-29-50C55-147 81-57 75 0H25l-1-190h47c2 12-1 28 3 38 10-53 101-56 108 0 13-22 24-43 59-42 82 1 51 116 57 194h-49v-107c-1-25-5-48-29-50" id="O"/><g id="a"><use transform="matrix(0.06234567901234567,0,0,0.06234567901234567,0,0)" xlink:href="#J"/><use transform="matrix(0.06234567901234567,0,0,0.06234567901234567,20.698765432098764,0)" xlink:href="#K"/><use transform="matrix(0.06234567901234567,0,0,0.06234567901234567,33.16790123456789,0)" xlink:href="#L"/><use transform="matrix(0.06234567901234567,0,0,0.06234567901234567,39.40246913580246,0)" xlink:href="#M"/><use transform="matrix(0.06234567901234567,0,0,0.06234567901234567,51.871604938271595,0)" xlink:href="#N"/><use transform="matrix(0.06234567901234567,0,0,0.06234567901234567,65.5253086419753,0)" xlink:href="#O"/><use transform="matrix(0.06234567901234567,0,0,0.06234567901234567,85.4759259259259,0)" xlink:href="#K"/></g><path fill="#333" d="M186 0v-106H76V0H24v-248h52v99h110v-99h50V0h-50" id="P"/><path fill="#333" d="M133-34C117-15 103 5 69 4 32 3 11-16 11-54c-1-60 55-63 116-61 1-26-3-47-28-47-18 1-26 9-28 27l-52-2c7-38 36-58 82-57s74 22 75 68l1 82c-1 14 12 18 25 15v27c-30 8-71 5-69-32zm-48 3c29 0 43-24 42-57-32 0-66-3-65 30 0 17 8 27 23 27" id="Q"/><path fill="#333" d="M128 0H69L1-190h53L99-40l48-150h52" id="R"/><g id="b"><use transform="matrix(0.06234567901234567,0,0,0.06234567901234567,0,0)" xlink:href="#P"/><use transform="matrix(0.06234567901234567,0,0,0.06234567901234567,16.147530864197527,0)" xlink:href="#Q"/><use transform="matrix(0.06234567901234567,0,0,0.06234567901234567,28.61666666666666,0)" xlink:href="#R"/><use transform="matrix(0.06234567901234567,0,0,0.06234567901234567,41.08580246913579,0)" xlink:href="#K"/></g><path fill="#333" d="M199 0l-22-63H83L61 0H9l90-248h61L250 0h-51zm-33-102l-36-108c-10 38-24 72-36 108h72" id="S"/><path fill="#333" d="M67-125c0 53 21 87 73 88 37 1 54-22 65-47l45 17C233-25 199 4 140 4 58 4 20-42 15-125 8-235 124-281 211-232c18 10 29 29 36 50l-46 12c-8-25-30-41-62-41-52 0-71 34-72 86" id="T"/><path fill="#333" d="M110-251c83-7 118 89 53 130-17 10-36 21-38 46H78c2-56 65-53 71-103 2-21-15-35-38-34-25 1-41 14-44 38l-50-2c6-48 39-70 93-75zM77 0v-47h51V0H77" id="U"/><g id="c"><use transform="matrix(0.06234567901234567,0,0,0.06234567901234567,0,0)" xlink:href="#S"/><use transform="matrix(0.06234567901234567,0,0,0.06234567901234567,16.147530864197527,0)" xlink:href="#T"/><use transform="matrix(0.06234567901234567,0,0,0.06234567901234567,32.295061728395055,0)" xlink:href="#T"/><use transform="matrix(0.06234567901234567,0,0,0.06234567901234567,48.44259259259258,0)" xlink:href="#U"/></g><path fill="#333" d="M135-150c-39-12-60 13-60 57V0H25l-1-190h47c2 13-1 29 3 40 6-28 27-53 61-41v41" id="V"/><path fill="#333" d="M115-3C79 11 28 4 28-45v-112H4v-33h27l15-45h31v45h36v33H77v99c-1 23 16 31 38 25v30" id="W"/><path fill="#333" d="M-4 44V30h207v14H-4" id="X"/><path fill="#333" d="M102-93c0 74-22 123-52 168H0C30 29 54-18 53-93c0-74-22-123-53-168h50c30 45 52 94 52 168" id="Y"/><g id="d"><use transform="matrix(0.06234567901234567,0,0,0.06234567901234567,0,0)" xlink:href="#M"/><use transform="matrix(0.06234567901234567,0,0,0.06234567901234567,12.469135802469133,0)" xlink:href="#V"/><use transform="matrix(0.06234567901234567,0,0,0.06234567901234567,21.197530864197525,0)" xlink:href="#K"/><use transform="matrix(0.06234567901234567,0,0,0.06234567901234567,33.66666666666666,0)" xlink:href="#Q"/><use transform="matrix(0.06234567901234567,0,0,0.06234567901234567,46.13580246913579,0)" xlink:href="#W"/><use transform="matrix(0.06234567901234567,0,0,0.06234567901234567,53.554938271604925,0)" xlink:href="#K"/><use transform="matrix(0.06234567901234567,0,0,0.06234567901234567,66.02407407407406,0)" xlink:href="#X"/><use transform="matrix(0.06234567901234567,0,0,0.06234567901234567,78.4932098765432,0)" xlink:href="#Q"/><use transform="matrix(0.06234567901234567,0,0,0.06234567901234567,90.96234567901234,0)" xlink:href="#M"/><use transform="matrix(0.06234567901234567,0,0,0.06234567901234567,103.43148148148148,0)" xlink:href="#M"/><use transform="matrix(0.06234567901234567,0,0,0.06234567901234567,115.90061728395062,0)" xlink:href="#Y"/></g><path fill="#333" d="M146-102V0H94v-102L6-248h54l60 105 60-105h54" id="Z"/><path fill="#333" d="M137-138c1-29-70-34-71-4 15 46 118 7 119 86 1 83-164 76-172 9l43-7c4 19 20 25 44 25 33 8 57-30 24-41C81-84 22-81 20-136c-2-80 154-74 161-7" id="aa"/><g id="e"><use transform="matrix(0.06234567901234567,0,0,0.06234567901234567,0,0)" xlink:href="#Z"/><use transform="matrix(0.06234567901234567,0,0,0.06234567901234567,13.716049382716047,0)" xlink:href="#K"/><use transform="matrix(0.06234567901234567,0,0,0.06234567901234567,26.18518518518518,0)" xlink:href="#aa"/></g><path fill="#333" d="M175 0L67-191c6 58 2 128 3 191H24v-248h59L193-55c-6-58-2-129-3-193h46V0h-61" id="ab"/><g id="f"><use transform="matrix(0.06234567901234567,0,0,0.06234567901234567,0,0)" xlink:href="#ab"/><use transform="matrix(0.06234567901234567,0,0,0.06234567901234567,16.147530864197527,0)" xlink:href="#N"/></g><path fill="#333" d="M88-194c31-1 46 15 58 34l-1-101h50l1 261h-48c-2-10 0-23-3-31C134-8 116 4 84 4 32 4 16-41 15-95c0-56 19-97 73-99zm17 164c33 0 40-30 41-66 1-37-9-64-41-64s-38 30-39 65c0 43 13 65 39 65" id="ac"/><path fill="#333" d="M85 4C-2 5 27-109 22-190h50c7 57-23 150 33 157 60-5 35-97 40-157h50l1 190h-47c-2-12 1-28-3-38-12 25-28 42-61 42" id="ad"/><path fill="#333" d="M67-93c0 74 22 123 53 168H70C40 30 18-18 18-93s22-123 52-168h50c-32 44-53 94-53 168" id="ae"/><g id="g"><use transform="matrix(0.06234567901234567,0,0,0.06234567901234567,0,0)" xlink:href="#Q"/><use transform="matrix(0.06234567901234567,0,0,0.06234567901234567,12.469135802469133,0)" xlink:href="#ac"/><use transform="matrix(0.06234567901234567,0,0,0.06234567901234567,26.122839506172834,0)" xlink:href="#ac"/><use transform="matrix(0.06234567901234567,0,0,0.06234567901234567,39.776543209876536,0)" xlink:href="#X"/><use transform="matrix(0.06234567901234567,0,0,0.06234567901234567,52.24567901234567,0)" xlink:href="#ad"/><use transform="matrix(0.06234567901234567,0,0,0.06234567901234567,65.89938271604937,0)" xlink:href="#aa"/><use transform="matrix(0.06234567901234567,0,0,0.06234567901234567,78.3685185185185,0)" xlink:href="#K"/><use transform="matrix(0.06234567901234567,0,0,0.06234567901234567,90.83765432098764,0)" xlink:href="#V"/><use transform="matrix(0.06234567901234567,0,0,0.06234567901234567,99.56604938271603,0)" xlink:href="#ae"/><use transform="matrix(0.06234567901234567,0,0,0.06234567901234567,106.98518518518516,0)" xlink:href="#Y"/></g><path fill="#333" d="M135-194c53 0 70 44 70 98 0 56-19 98-73 100-31 1-45-17-59-34 3 33 2 69 2 105H25l-1-265h48c2 10 0 23 3 31 11-24 29-35 60-35zM114-30c33 0 39-31 40-66 0-38-9-64-40-64-56 0-55 130 0 130" id="af"/><path fill="#333" d="M231 0h-52l-39-155L100 0H48L-1-190h46L77-45c9-52 24-97 36-145h53l37 145 32-145h46" id="ag"/><g id="h"><use transform="matrix(0.06234567901234567,0,0,0.06234567901234567,0,0)" xlink:href="#M"/><use transform="matrix(0.06234567901234567,0,0,0.06234567901234567,12.469135802469133,0)" xlink:href="#V"/><use transform="matrix(0.06234567901234567,0,0,0.06234567901234567,21.197530864197525,0)" xlink:href="#K"/><use transform="matrix(0.06234567901234567,0,0,0.06234567901234567,33.66666666666666,0)" xlink:href="#Q"/><use transform="matrix(0.06234567901234567,0,0,0.06234567901234567,46.13580246913579,0)" xlink:href="#W"/><use transform="matrix(0.06234567901234567,0,0,0.06234567901234567,53.554938271604925,0)" xlink:href="#K"/><use transform="matrix(0.06234567901234567,0,0,0.06234567901234567,66.02407407407406,0)" xlink:href="#X"/><use transform="matrix(0.06234567901234567,0,0,0.06234567901234567,78.4932098765432,0)" xlink:href="#af"/><use transform="matrix(0.06234567901234567,0,0,0.06234567901234567,92.1469135802469,0)" xlink:href="#ag"/><use transform="matrix(0.06234567901234567,0,0,0.06234567901234567,109.60370370370369,0)" xlink:href="#ae"/><use transform="matrix(0.06234567901234567,0,0,0.06234567901234567,117.02283950617282,0)" xlink:href="#Y"/></g><path fill="#333" d="M25-224v-37h50v37H25zM25 0v-190h50V0H25" id="ah"/><path fill="#333" d="M121-226c-27-7-43 5-38 36h38v33H83V0H34v-157H6v-33h28c-9-59 32-81 87-68v32" id="ai"/><path fill="#333" d="M123 10C108 53 80 86 19 72V37c35 8 53-11 59-39L3-190h52l48 148c12-52 28-100 44-148h51" id="aj"/><g id="i"><use transform="matrix(0.06234567901234567,0,0,0.06234567901234567,0,0)" xlink:href="#R"/><use transform="matrix(0.06234567901234567,0,0,0.06234567901234567,12.469135802469133,0)" xlink:href="#K"/><use transform="matrix(0.06234567901234567,0,0,0.06234567901234567,24.938271604938265,0)" xlink:href="#V"/><use transform="matrix(0.06234567901234567,0,0,0.06234567901234567,33.66666666666666,0)" xlink:href="#ah"/><use transform="matrix(0.06234567901234567,0,0,0.06234567901234567,39.90123456790123,0)" xlink:href="#ai"/><use transform="matrix(0.06234567901234567,0,0,0.06234567901234567,47.32037037037036,0)" xlink:href="#aj"/><use transform="matrix(0.06234567901234567,0,0,0.06234567901234567,59.789506172839495,0)" xlink:href="#X"/><use transform="matrix(0.06234567901234567,0,0,0.06234567901234567,72.25864197530862,0)" xlink:href="#ad"/><use transform="matrix(0.06234567901234567,0,0,0.06234567901234567,85.91234567901232,0)" xlink:href="#aa"/><use transform="matrix(0.06234567901234567,0,0,0.06234567901234567,98.38148148148144,0)" xlink:href="#K"/><use transform="matrix(0.06234567901234567,0,0,0.06234567901234567,110.85061728395058,0)" xlink:href="#V"/></g><g id="j"><use transform="matrix(0.06234567901234567,0,0,0.06234567901234567,0,0)" xlink:href="#ad"/><use transform="matrix(0.06234567901234567,0,0,0.06234567901234567,13.653703703703702,0)" xlink:href="#aa"/><use transform="matrix(0.06234567901234567,0,0,0.06234567901234567,26.122839506172834,0)" xlink:href="#K"/><use transform="matrix(0.06234567901234567,0,0,0.06234567901234567,38.59197530864196,0)" xlink:href="#V"/></g><path fill="#333" d="M135-194c87-1 58 113 63 194h-50c-7-57 23-157-34-157-59 0-34 97-39 157H25l-1-190h47c2 12-1 28 3 38 12-26 28-41 61-42" id="ak"/><g id="k"><use transform="matrix(0.06234567901234567,0,0,0.06234567901234567,0,0)" xlink:href="#ai"/><use transform="matrix(0.06234567901234567,0,0,0.06234567901234567,7.4191358024691345,0)" xlink:href="#N"/><use transform="matrix(0.06234567901234567,0,0,0.06234567901234567,21.072839506172837,0)" xlink:href="#ad"/><use transform="matrix(0.06234567901234567,0,0,0.06234567901234567,34.72654320987654,0)" xlink:href="#ak"/><use transform="matrix(0.06234567901234567,0,0,0.06234567901234567,48.38024691358024,0)" xlink:href="#ac"/></g><g id="l"><use transform="matrix(0.06234567901234567,0,0,0.06234567901234567,0,0)" xlink:href="#ak"/><use transform="matrix(0.06234567901234567,0,0,0.06234567901234567,13.653703703703702,0)" xlink:href="#N"/><use transform="matrix(0.06234567901234567,0,0,0.06234567901234567,27.307407407407403,0)" xlink:href="#W"/></g><g id="m"><use transform="matrix(0.06234567901234567,0,0,0.06234567901234567,0,0)" xlink:href="#ai"/><use transform="matrix(0.06234567901234567,0,0,0.06234567901234567,7.4191358024691345,0)" xlink:href="#N"/><use transform="matrix(0.06234567901234567,0,0,0.06234567901234567,21.072839506172837,0)" xlink:href="#ad"/><use transform="matrix(0.06234567901234567,0,0,0.06234567901234567,34.72654320987654,0)" xlink:href="#ak"/><use transform="matrix(0.06234567901234567,0,0,0.06234567901234567,48.38024691358024,0)" xlink:href="#ac"/></g><g id="n"><use transform="matrix(0.06234567901234567,0,0,0.06234567901234567,0,0)" xlink:href="#V"/><use transform="matrix(0.06234567901234567,0,0,0.06234567901234567,8.728395061728394,0)" xlink:href="#K"/><use transform="matrix(0.06234567901234567,0,0,0.06234567901234567,21.197530864197525,0)" xlink:href="#W"/><use transform="matrix(0.06234567901234567,0,0,0.06234567901234567,28.61666666666666,0)" xlink:href="#V"/><use transform="matrix(0.06234567901234567,0,0,0.06234567901234567,37.34506172839505,0)" xlink:href="#aj"/></g><g id="o"><use transform="matrix(0.06234567901234567,0,0,0.06234567901234567,0,0)" xlink:href="#N"/><use transform="matrix(0.06234567901234567,0,0,0.06234567901234567,13.653703703703702,0)" xlink:href="#V"/></g><g id="p"><use transform="matrix(0.06234567901234567,0,0,0.06234567901234567,0,0)" xlink:href="#M"/><use transform="matrix(0.06234567901234567,0,0,0.06234567901234567,12.469135802469133,0)" xlink:href="#V"/><use transform="matrix(0.06234567901234567,0,0,0.06234567901234567,21.197530864197525,0)" xlink:href="#K"/><use transform="matrix(0.06234567901234567,0,0,0.06234567901234567,33.66666666666666,0)" xlink:href="#Q"/><use transform="matrix(0.06234567901234567,0,0,0.06234567901234567,46.13580246913579,0)" xlink:href="#W"/><use transform="matrix(0.06234567901234567,0,0,0.06234567901234567,53.554938271604925,0)" xlink:href="#K"/></g><g id="q"><use transform="matrix(0.06234567901234567,0,0,0.06234567901234567,0,0)" xlink:href="#S"/><use transform="matrix(0.06234567901234567,0,0,0.06234567901234567,16.147530864197527,0)" xlink:href="#M"/><use transform="matrix(0.06234567901234567,0,0,0.06234567901234567,28.61666666666666,0)" xlink:href="#M"/><use transform="matrix(0.06234567901234567,0,0,0.06234567901234567,41.08580246913579,0)" xlink:href="#K"/><use transform="matrix(0.06234567901234567,0,0,0.06234567901234567,53.554938271604925,0)" xlink:href="#aa"/><use transform="matrix(0.06234567901234567,0,0,0.06234567901234567,66.02407407407406,0)" xlink:href="#aa"/></g><g id="r"><use transform="matrix(0.06234567901234567,0,0,0.06234567901234567,0,0)" xlink:href="#ad"/><use transform="matrix(0.06234567901234567,0,0,0.06234567901234567,13.653703703703702,0)" xlink:href="#aa"/><use transform="matrix(0.06234567901234567,0,0,0.06234567901234567,26.122839506172834,0)" xlink:href="#K"/><use transform="matrix(0.06234567901234567,0,0,0.06234567901234567,38.59197530864196,0)" xlink:href="#V"/></g><path fill="#333" d="M114-157C55-157 80-60 75 0H25v-261h50l-1 109c12-26 28-41 61-42 86-1 58 113 63 194h-50c-7-57 23-157-34-157" id="al"/><g id="s"><use transform="matrix(0.06234567901234567,0,0,0.06234567901234567,0,0)" xlink:href="#aa"/><use transform="matrix(0.06234567901234567,0,0,0.06234567901234567,12.469135802469133,0)" xlink:href="#af"/><use transform="matrix(0.06234567901234567,0,0,0.06234567901234567,26.122839506172834,0)" xlink:href="#V"/><use transform="matrix(0.06234567901234567,0,0,0.06234567901234567,34.85123456790123,0)" xlink:href="#K"/><use transform="matrix(0.06234567901234567,0,0,0.06234567901234567,47.32037037037036,0)" xlink:href="#Q"/><use transform="matrix(0.06234567901234567,0,0,0.06234567901234567,59.789506172839495,0)" xlink:href="#ac"/><use transform="matrix(0.06234567901234567,0,0,0.06234567901234567,73.4432098765432,0)" xlink:href="#aa"/><use transform="matrix(0.06234567901234567,0,0,0.06234567901234567,85.91234567901233,0)" xlink:href="#al"/><use transform="matrix(0.06234567901234567,0,0,0.06234567901234567,99.56604938271603,0)" xlink:href="#K"/><use transform="matrix(0.06234567901234567,0,0,0.06234567901234567,112.03518518518516,0)" xlink:href="#K"/><use transform="matrix(0.06234567901234567,0,0,0.06234567901234567,124.5043209876543,0)" xlink:href="#W"/></g><g id="t"><use transform="matrix(0.06234567901234567,0,0,0.06234567901234567,0,0)" xlink:href="#J"/><use transform="matrix(0.06234567901234567,0,0,0.06234567901234567,21.135185185185183,0)" xlink:href="#al"/><use transform="matrix(0.06234567901234567,0,0,0.06234567901234567,34.788888888888884,0)" xlink:href="#Q"/><use transform="matrix(0.06234567901234567,0,0,0.06234567901234567,47.25802469135802,0)" xlink:href="#W"/></g><g id="u"><use transform="matrix(0.06234567901234567,0,0,0.06234567901234567,0,0)" xlink:href="#W"/><use transform="matrix(0.06234567901234567,0,0,0.06234567901234567,7.4191358024691345,0)" xlink:href="#N"/></g><g id="v"><use transform="matrix(0.06234567901234567,0,0,0.06234567901234567,0,0)" xlink:href="#ac"/><use transform="matrix(0.06234567901234567,0,0,0.06234567901234567,13.653703703703702,0)" xlink:href="#N"/></g><path fill="#333" d="M147 0L96-86 75-71V0H25v-261h50v150l67-79h53l-66 74L201 0h-54" id="am"/><g id="w"><use transform="matrix(0.06234567901234567,0,0,0.06234567901234567,0,0)" xlink:href="#M"/><use transform="matrix(0.06234567901234567,0,0,0.06234567901234567,12.469135802469133,0)" xlink:href="#al"/><use transform="matrix(0.06234567901234567,0,0,0.06234567901234567,26.122839506172834,0)" xlink:href="#K"/><use transform="matrix(0.06234567901234567,0,0,0.06234567901234567,38.59197530864196,0)" xlink:href="#M"/><use transform="matrix(0.06234567901234567,0,0,0.06234567901234567,51.061111111111096,0)" xlink:href="#am"/></g><g id="x"><use transform="matrix(0.06234567901234567,0,0,0.06234567901234567,0,0)" xlink:href="#M"/><use transform="matrix(0.06234567901234567,0,0,0.06234567901234567,12.469135802469133,0)" xlink:href="#V"/><use transform="matrix(0.06234567901234567,0,0,0.06234567901234567,21.197530864197525,0)" xlink:href="#K"/><use transform="matrix(0.06234567901234567,0,0,0.06234567901234567,33.66666666666666,0)" xlink:href="#Q"/><use transform="matrix(0.06234567901234567,0,0,0.06234567901234567,46.13580246913579,0)" xlink:href="#W"/><use transform="matrix(0.06234567901234567,0,0,0.06234567901234567,53.554938271604925,0)" xlink:href="#K"/></g><g id="y"><use transform="matrix(0.06234567901234567,0,0,0.06234567901234567,0,0)" xlink:href="#af"/><use transform="matrix(0.06234567901234567,0,0,0.06234567901234567,13.653703703703702,0)" xlink:href="#ag"/></g><g id="z"><use transform="matrix(0.06234567901234567,0,0,0.06234567901234567,0,0)" xlink:href="#M"/><use transform="matrix(0.06234567901234567,0,0,0.06234567901234567,12.469135802469133,0)" xlink:href="#al"/><use transform="matrix(0.06234567901234567,0,0,0.06234567901234567,26.122839506172834,0)" xlink:href="#K"/><use transform="matrix(0.06234567901234567,0,0,0.06234567901234567,38.59197530864196,0)" xlink:href="#M"/><use transform="matrix(0.06234567901234567,0,0,0.06234567901234567,51.061111111111096,0)" xlink:href="#am"/></g><path fill="#333" d="M4 7l51-268h42L46 7H4" id="an"/><g id="A"><use transform="matrix(0.06234567901234567,0,0,0.06234567901234567,0,0)" xlink:href="#ad"/><use transform="matrix(0.06234567901234567,0,0,0.06234567901234567,13.653703703703702,0)" xlink:href="#aa"/><use transform="matrix(0.06234567901234567,0,0,0.06234567901234567,26.122839506172834,0)" xlink:href="#K"/><use transform="matrix(0.06234567901234567,0,0,0.06234567901234567,38.59197530864196,0)" xlink:href="#V"/><use transform="matrix(0.06234567901234567,0,0,0.06234567901234567,47.320370370370355,0)" xlink:href="#ak"/><use transform="matrix(0.06234567901234567,0,0,0.06234567901234567,60.97407407407405,0)" xlink:href="#Q"/><use transform="matrix(0.06234567901234567,0,0,0.06234567901234567,73.4432098765432,0)" xlink:href="#O"/><use transform="matrix(0.06234567901234567,0,0,0.06234567901234567,93.3938271604938,0)" xlink:href="#K"/><use transform="matrix(0.06234567901234567,0,0,0.06234567901234567,105.86296296296294,0)" xlink:href="#an"/><use transform="matrix(0.06234567901234567,0,0,0.06234567901234567,112.09753086419751,0)" xlink:href="#af"/><use transform="matrix(0.06234567901234567,0,0,0.06234567901234567,125.75123456790121,0)" xlink:href="#ag"/></g><path fill="#333" d="M135-194c52 0 70 43 70 98 0 56-19 99-73 100-30 1-46-15-58-35L72 0H24l1-261h50v104c11-23 29-37 60-37zM114-30c31 0 40-27 40-66 0-37-7-63-39-63s-41 28-41 65c0 36 8 64 40 64" id="ao"/><g id="B"><use transform="matrix(0.06234567901234567,0,0,0.06234567901234567,0,0)" xlink:href="#Q"/><use transform="matrix(0.06234567901234567,0,0,0.06234567901234567,12.469135802469133,0)" xlink:href="#af"/><use transform="matrix(0.06234567901234567,0,0,0.06234567901234567,26.122839506172834,0)" xlink:href="#af"/><use transform="matrix(0.06234567901234567,0,0,0.06234567901234567,39.776543209876536,0)" xlink:href="#an"/><use transform="matrix(0.06234567901234567,0,0,0.06234567901234567,46.011111111111106,0)" xlink:href="#ag"/><use transform="matrix(0.06234567901234567,0,0,0.06234567901234567,63.46790123456789,0)" xlink:href="#K"/><use transform="matrix(0.06234567901234567,0,0,0.06234567901234567,75.93703703703702,0)" xlink:href="#ao"/><use transform="matrix(0.06234567901234567,0,0,0.06234567901234567,89.59074074074071,0)" xlink:href="#aa"/><use transform="matrix(0.06234567901234567,0,0,0.06234567901234567,102.05987654320984,0)" xlink:href="#ah"/><use transform="matrix(0.06234567901234567,0,0,0.06234567901234567,108.29444444444441,0)" xlink:href="#W"/><use transform="matrix(0.06234567901234567,0,0,0.06234567901234567,115.71358024691354,0)" xlink:href="#K"/></g><g id="C"><use transform="matrix(0.06234567901234567,0,0,0.06234567901234567,0,0)" xlink:href="#ad"/><use transform="matrix(0.06234567901234567,0,0,0.06234567901234567,13.653703703703702,0)" xlink:href="#aa"/><use transform="matrix(0.06234567901234567,0,0,0.06234567901234567,26.122839506172834,0)" xlink:href="#K"/><use transform="matrix(0.06234567901234567,0,0,0.06234567901234567,38.59197530864196,0)" xlink:href="#V"/><use transform="matrix(0.06234567901234567,0,0,0.06234567901234567,47.320370370370355,0)" xlink:href="#ak"/><use transform="matrix(0.06234567901234567,0,0,0.06234567901234567,60.97407407407405,0)" xlink:href="#Q"/><use transform="matrix(0.06234567901234567,0,0,0.06234567901234567,73.4432098765432,0)" xlink:href="#O"/><use transform="matrix(0.06234567901234567,0,0,0.06234567901234567,93.3938271604938,0)" xlink:href="#K"/></g><g id="D"><use transform="matrix(0.06234567901234567,0,0,0.06234567901234567,0,0)" xlink:href="#af"/><use transform="matrix(0.06234567901234567,0,0,0.06234567901234567,13.653703703703702,0)" xlink:href="#Q"/><use transform="matrix(0.06234567901234567,0,0,0.06234567901234567,26.122839506172834,0)" xlink:href="#aa"/><use transform="matrix(0.06234567901234567,0,0,0.06234567901234567,38.59197530864196,0)" xlink:href="#aa"/><use transform="matrix(0.06234567901234567,0,0,0.06234567901234567,51.061111111111096,0)" xlink:href="#ag"/><use transform="matrix(0.06234567901234567,0,0,0.06234567901234567,68.51790123456789,0)" xlink:href="#N"/><use transform="matrix(0.06234567901234567,0,0,0.06234567901234567,82.17160493827159,0)" xlink:href="#V"/><use transform="matrix(0.06234567901234567,0,0,0.06234567901234567,90.89999999999998,0)" xlink:href="#ac"/></g><path fill="#333" d="M195-6C206 82 75 100 31 46c-4-6-6-13-8-21l49-6c3 16 16 24 34 25 40 0 42-37 40-79-11 22-30 35-61 35-53 0-70-43-70-97 0-56 18-96 73-97 30 0 46 14 59 34l2-30h47zm-90-29c32 0 41-27 41-63 0-35-9-62-40-62-32 0-39 29-40 63 0 36 9 62 39 62" id="ap"/><g id="E"><use transform="matrix(0.06234567901234567,0,0,0.06234567901234567,0,0)" xlink:href="#T"/><use transform="matrix(0.06234567901234567,0,0,0.06234567901234567,16.147530864197527,0)" xlink:href="#al"/><use transform="matrix(0.06234567901234567,0,0,0.06234567901234567,29.80123456790123,0)" xlink:href="#Q"/><use transform="matrix(0.06234567901234567,0,0,0.06234567901234567,42.27037037037036,0)" xlink:href="#ak"/><use transform="matrix(0.06234567901234567,0,0,0.06234567901234567,55.924074074074056,0)" xlink:href="#ap"/><use transform="matrix(0.06234567901234567,0,0,0.06234567901234567,69.57777777777775,0)" xlink:href="#K"/></g><g id="F"><use transform="matrix(0.06234567901234567,0,0,0.06234567901234567,0,0)" xlink:href="#O"/><use transform="matrix(0.06234567901234567,0,0,0.06234567901234567,19.950617283950614,0)" xlink:href="#Q"/><use transform="matrix(0.06234567901234567,0,0,0.06234567901234567,32.419753086419746,0)" xlink:href="#aa"/><use transform="matrix(0.06234567901234567,0,0,0.06234567901234567,44.88888888888888,0)" xlink:href="#W"/><use transform="matrix(0.06234567901234567,0,0,0.06234567901234567,52.308024691358014,0)" xlink:href="#K"/><use transform="matrix(0.06234567901234567,0,0,0.06234567901234567,64.77716049382715,0)" xlink:href="#V"/></g><g id="G"><use transform="matrix(0.06234567901234567,0,0,0.06234567901234567,0,0)" xlink:href="#af"/><use transform="matrix(0.06234567901234567,0,0,0.06234567901234567,13.653703703703702,0)" xlink:href="#Q"/><use transform="matrix(0.06234567901234567,0,0,0.06234567901234567,26.122839506172834,0)" xlink:href="#aa"/><use transform="matrix(0.06234567901234567,0,0,0.06234567901234567,38.59197530864196,0)" xlink:href="#aa"/><use transform="matrix(0.06234567901234567,0,0,0.06234567901234567,51.061111111111096,0)" xlink:href="#ag"/><use transform="matrix(0.06234567901234567,0,0,0.06234567901234567,68.51790123456789,0)" xlink:href="#N"/><use transform="matrix(0.06234567901234567,0,0,0.06234567901234567,82.17160493827159,0)" xlink:href="#V"/><use transform="matrix(0.06234567901234567,0,0,0.06234567901234567,90.89999999999998,0)" xlink:href="#ac"/></g><g id="H"><use transform="matrix(0.06234567901234567,0,0,0.06234567901234567,0,0)" xlink:href="#O"/><use transform="matrix(0.06234567901234567,0,0,0.06234567901234567,19.950617283950614,0)" xlink:href="#N"/><use transform="matrix(0.06234567901234567,0,0,0.06234567901234567,33.60432098765432,0)" xlink:href="#ac"/><use transform="matrix(0.06234567901234567,0,0,0.06234567901234567,47.25802469135802,0)" xlink:href="#ah"/><use transform="matrix(0.06234567901234567,0,0,0.06234567901234567,53.49259259259259,0)" xlink:href="#ai"/><use transform="matrix(0.06234567901234567,0,0,0.06234567901234567,60.91172839506172,0)" xlink:href="#aj"/></g><g id="I"><use transform="matrix(0.06234567901234567,0,0,0.06234567901234567,0,0)" xlink:href="#aa"/><use transform="matrix(0.06234567901234567,0,0,0.06234567901234567,12.469135802469133,0)" xlink:href="#ah"/><use transform="matrix(0.06234567901234567,0,0,0.06234567901234567,18.7037037037037,0)" xlink:href="#ak"/><use transform="matrix(0.06234567901234567,0,0,0.06234567901234567,32.3574074074074,0)" xlink:href="#ap"/><use transform="matrix(0.06234567901234567,0,0,0.06234567901234567,46.011111111111106,0)" xlink:href="#L"/><use transform="matrix(0.06234567901234567,0,0,0.06234567901234567,52.245679012345676,0)" xlink:href="#K"/></g></defs></g></svg>